<?xml version="1.0" encoding="UTF-8"?>
<svg width="18px" height="16px" viewBox="0 0 18 16" version="1.1" xmlns="http://www.w3.org/2000/svg" xmlns:xlink="http://www.w3.org/1999/xlink">
    <!-- Generator: Sketch 46.2 (44496) - http://www.bohemiancoding.com/sketch -->
    <title>Path 2@3x</title>
    <desc>Created with Sketch.</desc>
    <defs></defs>
    <g id="空白页" stroke="none" stroke-width="1" fill="none" fill-rule="evenodd">
        <g id="无预约课" transform="translate(-169.000000, -625.000000)">
            <rect id="Rectangle-4" fill="#F8F8F8" x="0" y="0" width="375" height="667"></rect>
            <g id="课程" transform="translate(169.000000, 625.000000)" stroke="#FFFFFF">
                <path d="M9.5,1.6392636 L9.5,1.35 L9.24923556,1.78345315 L9.5,1.6392636 Z M8.99673698,15.1468994 L8.71816454,15.3370003 L9.2773501,15.3339749 L8.99673698,15.1468994 Z M8.5,1.60792685 L8.71017612,1.75743357 L8.5,1.35 L8.5,1.60792685 Z M8.5,1.60792685 L8.5,14.7642857 L9.5,14.7642857 L9.5,1.6392636 L10.9026598,0.832734242 C11.2817976,0.614729967 11.7114917,0.5 12.1488376,0.5 L17,0.5 C17.2761424,0.5 17.5,0.723857625 17.5,1 L17.5,12.95 C17.5,13.2261424 17.2761424,13.45 17,13.45 L11.4833617,13.45 L8.99673698,15.1468994 L6.45138782,13.45 L1,13.45 C0.723857625,13.45 0.5,13.2261424 0.5,12.95 L0.5,1 C0.5,0.723857625 0.723857625,0.5 1,0.5 L6.1440083,0.5 C6.6633985,0.5 7.1698937,0.661768764 7.59312771,0.96283213 L8.5,1.60792685 Z" id="Path-2"></path>
            </g>
        </g>
    </g>
</svg>