<?xml version="1.0" encoding="UTF-8"?>
<svg width="24px" height="24px" viewBox="0 0 24 24" version="1.1" xmlns="http://www.w3.org/2000/svg" xmlns:xlink="http://www.w3.org/1999/xlink">
    <!-- Generator: Sketch 46.2 (44496) - http://www.bohemiancoding.com/sketch -->
    <title>Stroke 1@2x</title>
    <desc>Created with Sketch.</desc>
    <defs></defs>
    <g id="课程预约" stroke="none" stroke-width="1" fill="none" fill-rule="evenodd">
        <g id="VIP约课03" transform="translate(-27.000000, -612.000000)">
            <path d="M39.6062009,634.290857 L42.3373253,631.5 L48,631.5 C49.3807119,631.5 50.5,630.380712 50.5,629 L50.5,618 C50.5,616.619288 49.3807119,615.5 48,615.5 L30,615.5 C28.6192881,615.5 27.5,616.619288 27.5,618 L27.5,629 C27.5,630.380712 28.6192881,631.5 30,631.5 L36.7871809,631.5 L39.6062009,634.290857 Z" id="Rectangle-10" stroke="#FE953E"></path>
            <path d="M41.435283,626.055666 L46.5129374,621.140807 L47.2200442,621.847914 L42.1423898,626.762773 L42.1423898,626.762773 C41.9430332,626.955738 41.6257576,626.953154 41.4295707,626.756967 L41.4295707,626.756967 L41.4295707,626.756967 C41.2374638,626.56486 41.2374638,626.253393 41.4295707,626.061286 C41.4314595,626.059398 41.4333637,626.057524 41.435283,626.055666 Z M46.6237749,621.023692 L47.2203262,620.429309 L47.2203262,620.429309 C47.4160477,620.234299 47.7327099,620.234587 47.9280761,620.429953 C48.122983,620.62486 48.122983,620.940867 47.9280761,621.135774 C47.9278619,621.135988 47.9276475,621.136202 47.927433,621.136415 L47.3308817,621.730798 L46.6237749,621.023692 Z" id="Combined-Shape" fill="#FE953E" transform="translate(44.679873, 623.594529) rotate(-5.000000) translate(-44.679873, -623.594529) "></path>
            <path d="M31.5,620 L40.5,620 C40.7761424,620 41,620.223858 41,620.5 L41,620.5 C41,620.776142 40.7761424,621 40.5,621 L31.5,621 C31.2238576,621 31,620.776142 31,620.5 L31,620.5 L31,620.5 C31,620.223858 31.2238576,620 31.5,620 L31.5,620 Z M31.5,627 C31.2238576,627 31,626.776142 31,626.5 C31,626.223858 31.2238576,626 31.5,626 L31.5,626 L37.5,626 C37.7761424,626 38,626.223858 38,626.5 L38,626.5 C38,626.776142 37.7761424,627 37.5,627 L37.5,627 L31.5,627 Z" id="Combined-Shape" fill="#FE953E"></path>
        </g>
    </g>
</svg>