<?xml version="1.0" encoding="UTF-8"?>
<svg width="14px" height="16px" viewBox="0 0 14 16" version="1.1" xmlns="http://www.w3.org/2000/svg" xmlns:xlink="http://www.w3.org/1999/xlink">
    <!-- Generator: Sketch 46.2 (44496) - http://www.bohemiancoding.com/sketch -->
    <title>Shape</title>
    <desc>Created with Sketch.</desc>
    <defs></defs>
    <g id="学校首页" stroke="none" stroke-width="1" fill="none" fill-rule="evenodd">
        <path d="M12.2208077,13.6548891 C11.5773958,13.8283238 10.857719,13.699022 10.3277365,13.2549826 L4.7851802,8.61444182 C4.74571737,8.58158108 4.71320881,8.5411757 4.68955882,8.49559257 C4.54663576,8.50985428 4.40308896,8.51696055 4.25945613,8.51688478 C1.90763453,8.51688478 0.00101374467,6.61026399 0.00101374467,4.2584424 C0.00101374467,1.9066208 1.90763453,0 4.25945613,0 C6.61127772,0 8.51789852,1.9066208 8.51789852,4.2584424 C8.51789852,4.40361657 8.51054304,4.54724222 8.49660632,4.68854507 C8.54073927,4.71177294 8.58177516,4.74351769 8.61545557,4.78416646 L13.2559964,10.3267228 C13.8885687,11.0820156 13.8823745,12.2213425 13.272643,12.9762482 C13.2656747,12.9847651 13.2292843,13.1454245 13.2137991,13.2015585 C12.7999559,14.6769153 11.8658085,15.5119571 10.4806533,15.7964985 C9.41952691,16.0144533 8.20122526,15.9203804 6.40725963,15.5773823 C6.13626784,15.5255067 5.87301867,15.4724697 5.4704023,15.3896237 C2.33580156,14.7446632 1.2816435,14.685045 0.666492151,15.3214886 C0.570500648,15.4215402 0.428331165,15.4626159 0.293771024,15.4291754 C0.159210883,15.3957349 0.0528093715,15.2928851 0.014821628,15.1595373 C-0.0231661155,15.0261895 0.0130611892,14.8827079 0.109797579,14.7833763 C0.630101813,14.2452641 1.41946219,14.0594411 2.51001057,14.1213821 C3.27962726,14.1651279 3.85258132,14.2661692 5.62641613,14.6312338 C6.02593546,14.7133056 6.28608757,14.7655683 6.55282092,14.8170567 C9.74974977,15.4287239 11.453901,15.2216088 12.2204206,13.6548891 L12.2208077,13.6548891 Z M5.61247941,8.29738143 L10.8252,12.6615106 C11.3261477,13.0811608 12.1232507,13.046319 12.5854853,12.5840844 C13.0477198,12.1218498 13.0829488,11.3255211 12.6629115,10.8237992 L8.29839517,5.61146569 C7.8725661,6.87764991 6.87866364,7.87155237 5.61247941,8.29738143 Z M4.25945613,7.74262254 C6.18371568,7.74262254 7.74363626,6.18270196 7.74363626,4.2584424 C7.74363626,2.33418284 6.18371568,0.774262259 4.25945613,0.774262259 C2.3351966,0.7742623 0.775276059,2.33418287 0.775276059,4.2584424 C0.775276059,6.18270193 2.3351966,7.7426225 4.25945613,7.74262254 L4.25945613,7.74262254 Z M7.61085029,8.15723997 L8.1582537,7.60983655 L9.80085108,9.25204679 L9.25306053,9.79983734 L7.61085029,8.15723997 L7.61085029,8.15723997 Z" id="Shape" fill="#999999" fill-rule="nonzero"></path>
    </g>
</svg>