<?xml version="1.0" standalone="no"?><!DOCTYPE svg PUBLIC "-//W3C//DTD SVG 1.1//EN" "http://www.w3.org/Graphics/SVG/1.1/DTD/svg11.dtd"><svg t="1509431204358" class="icon" style="" viewBox="0 0 1024 1024" version="1.1" xmlns="http://www.w3.org/2000/svg" p-id="2997" xmlns:xlink="http://www.w3.org/1999/xlink" width="200" height="200"><defs><style type="text/css"></style></defs><path d="M512 1.548626C229.658643 1.548626 0.775593 230.431676 0.775593 512.774313S229.658643 1024 512 1024s511.224407-228.883051 511.224407-511.225687S794.341357 1.548626 512 1.548626zM512 972.873592c-254.107733 0-460.101839-205.995386-460.101839-460.101839S257.892267 52.669915 512 52.669915s460.101839 205.995386 460.101839 460.101839S766.107733 972.873592 512 972.873592z" p-id="2998"></path><path d="M369.2423 360.096449l101.225092 0 0 305.354448-101.225092 0 0-305.354448Z" p-id="2999"></path><path d="M553.532608 360.096449l101.225092 0 0 305.354448-101.225092 0 0-305.354448Z" p-id="3000"></path></svg>