<?xml version="1.0" standalone="no"?><!DOCTYPE svg PUBLIC "-//W3C//DTD SVG 1.1//EN" "http://www.w3.org/Graphics/SVG/1.1/DTD/svg11.dtd"><svg t="1506313936933" class="icon" style="" viewBox="0 0 1024 1024" version="1.1" xmlns="http://www.w3.org/2000/svg" p-id="6766" xmlns:xlink="http://www.w3.org/1999/xlink" width="200" height="200"><defs><style type="text/css"></style></defs><path d="M512 1.809278c-282.242191 0-511.095361 228.832726-511.095361 511.095361 0 282.277968 228.832726 511.095361 511.095361 511.095361 282.277968 0 511.095361-228.817393 511.095361-511.095361C1023.115805 230.636893 794.303523 1.809278 512 1.809278zM512 958.952893c-246.353075 0-446.032922-199.69518-446.032922-446.048255 0-246.353075 199.705401-446.032922 446.032922-446.032922 246.393963 0 446.048255 199.679847 446.048255 446.032922C958.073809 759.257714 758.393963 958.952893 512 958.952893zM536.466135 329.753616l106.941593 0 0 384.992803-106.941593 0L536.466135 329.753616zM353.320223 331.455564l106.941593 0 0 384.992803L353.320223 716.448366 353.320223 331.455564z" p-id="6767" fill="#000000"></path></svg>