<?xml version="1.0" standalone="no"?><!DOCTYPE svg PUBLIC "-//W3C//DTD SVG 1.1//EN" "http://www.w3.org/Graphics/SVG/1.1/DTD/svg11.dtd"><svg t="1506321678327" class="icon" style="" viewBox="0 0 1024 1024" version="1.1" xmlns="http://www.w3.org/2000/svg" p-id="1840" xmlns:xlink="http://www.w3.org/1999/xlink" width="200" height="200"><defs><style type="text/css"></style></defs><path d="M824.888889 303.407407C780.060444 303.407407 739.896889 283.856593 712.135111 252.928L344.936296 470.528C348.672 483.726222 350.814815 497.607111 350.814815 512 350.814815 526.715259 348.615111 540.899556 344.708741 554.344296L708.399407 775.168C736.237037 741.831111 778.069333 720.592593 824.888889 720.592593 908.667259 720.592593 976.592593 788.517926 976.592593 872.296296 976.592593 956.074667 908.667259 1024 824.888889 1024 741.110519 1024 673.185185 956.074667 673.185185 872.296296 673.185185 860.444444 674.683259 848.952889 677.262222 837.878519L306.081185 619.538963C278.660741 646.826667 240.848593 663.703704 199.111111 663.703704 115.332741 663.703704 47.407407 595.77837 47.407407 512 47.407407 428.22163 115.332741 360.296296 199.111111 360.296296 240.848593 360.296296 278.660741 377.173333 306.081185 404.461037L677.262222 186.121481C674.683259 175.047111 673.185185 163.555556 673.185185 151.703704 673.185185 67.925333 741.110519 0 824.888889 0 908.667259 0 976.592593 67.925333 976.592593 151.703704 976.592593 235.482074 908.667259 303.407407 824.888889 303.407407Z" p-id="1841"></path></svg>