<?xml version="1.0" encoding="UTF-8"?>
<svg width="25px" height="25px" viewBox="0 0 25 25" version="1.1" xmlns="http://www.w3.org/2000/svg" xmlns:xlink="http://www.w3.org/1999/xlink">
    <!-- Generator: Sketch 46.2 (44496) - http://www.bohemiancoding.com/sketch -->
    <title>出席</title>
    <desc>Created with Sketch.</desc>
    <defs></defs>
    <g id="课程预约" stroke="none" stroke-width="1" fill="none" fill-rule="evenodd">
        <g id="交流课" transform="translate(-15.000000, -406.000000)">
            <circle id="Oval-2" fill="#3DC722" cx="27.5" cy="418.5" r="12.5"></circle>
            <path d="M24.3887381,421.806413 L21.6703148,419.08799 L21.6703148,419.08799 C21.3632228,418.780897 20.8656,418.780018 20.5574247,419.086023 L20.5574247,419.086023 L20.5574247,419.086023 C20.2506535,419.390634 20.2489021,419.886257 20.5535129,420.193028 C20.5541626,420.193683 20.5548134,420.194336 20.5554654,420.194988 L24.3887381,424.02826 L33.2565013,415.160497 L33.2565013,415.160497 C33.5621904,414.854808 33.5621904,414.359188 33.2565013,414.053499 C33.2565013,414.053499 33.2565013,414.053499 33.2565013,414.053499 L33.2565013,414.053499 L33.2565013,414.053499 C32.9507699,413.747768 32.4551175,413.747651 32.1492417,414.053238 L24.3887381,421.806413 Z" id="Fill-2" fill="#FFFFFF"></path>
        </g>
    </g>
</svg>